<svg aria-hidden="true" style="position: absolute; width: 0; height: 0; overflow: hidden;" version="1.1" xmlns="http://www.w3.org/2000/svg" xmlns:xlink="http://www.w3.org/1999/xlink">
<defs>
<symbol id="icon-film" viewBox="0 0 32 32">
<path fill="none" stroke="#818181" style="stroke: var(--color1, #818181)" stroke-linejoin="round" stroke-linecap="round" stroke-miterlimit="4" stroke-width="2.6667" d="M26.427 2.667h-20.853c-1.605 0-2.907 1.301-2.907 2.907v0 20.853c0 1.605 1.301 2.907 2.907 2.907v0h20.853c1.605 0 2.907-1.301 2.907-2.907v0-20.853c0-1.605-1.301-2.907-2.907-2.907v0zM9.333 2.667v26.667M22.667 2.667v26.667M2.667 16h26.667M2.667 9.333h6.667M2.667 22.667h6.667M22.667 22.667h6.667M22.667 9.333h6.667"></path>
</symbol>
<symbol id="icon-Group" viewBox="0 0 34 32">
<path fill="#ff6b08" style="fill: var(--color2, #ff6b08)" d="M17.231 31.705l-2.412-2.412c-8.96-7.926-14.818-13.268-14.818-19.815 0-5.342 4.135-9.477 9.477-9.477 2.929 0 5.858 1.378 7.754 3.618 1.895-2.24 4.825-3.618 7.754-3.618 5.342 0 9.477 4.135 9.477 9.477 0 6.548-5.858 11.889-14.818 19.815l-2.412 2.412z"></path>
</symbol>
<symbol id="icon-search-2" viewBox="0 0 32 32">
<path fill="none" stroke="#fff" style="stroke: var(--color3, #fff)" stroke-linejoin="round" stroke-linecap="round" stroke-miterlimit="4" stroke-width="2.6667" d="M14.667 25.333c5.891 0 10.667-4.776 10.667-10.667s-4.776-10.667-10.667-10.667v0c-5.891 0-10.667 4.776-10.667 10.667s4.776 10.667 10.667 10.667v0zM28 28l-5.8-5.8"></path>
</symbol>
<symbol id="close2" viewBox="0 0 32 32">
<path d="M26.667 7.303l-1.97-1.97-7.808 7.808-7.808-7.808-1.97 1.97 7.808 7.808-7.808 7.808 1.97 1.97 7.808-7.808 7.808 7.808 1.97-1.97-7.808-7.808 7.808-7.808z"></path>
</symbol>

<symbol id="email" viewBox="0 0 32 32">
<path d="M444.556 85.218H48.942C21.954 85.218 0 107.171 0 134.16v225.177c0 26.988 21.954 48.942 48.942 48.942h395.613c26.988 0 48.941-21.954 48.941-48.942V134.16c.001-26.989-21.952-48.942-48.94-48.942zm16.314 48.942v225.177c0 2.574-.725 4.924-1.793 7.09L343.74 251.081l117.097-117.097c0 .065.033.112.033.176zM32.628 359.336V134.16c0-.064.033-.11.033-.175l117.097 117.097L34.413 366.426c-1.06-2.166-1.785-4.515-1.785-7.09zm219.156-62.434c-2.692 2.691-7.378 2.691-10.07 0L62.667 117.846h368.172L251.784 296.902zm-78.957-22.75l45.818 45.819c7.512 7.511 17.493 11.645 28.104 11.645 10.61 0 20.592-4.134 28.104-11.645l45.82-45.819 101.49 101.499H71.327l101.5-101.499z"></path>
</symbol>

<symbol id="github" viewBox="0 0 32 32">
<path fill-rule="evenodd" clip-rule="evenodd" d="M512 0C229.12 0 0 229.12 0 512c0 226.56 146.56 417.92 350.08 485.76 25.6 4.48 35.2-10.88 35.2-24.32 0-12.16-.64-52.48-.64-95.36-128.64 23.68-161.92-31.36-172.16-60.16-5.76-14.72-30.72-60.16-52.48-72.32-17.92-9.6-43.52-33.28-.64-33.92 40.32-.64 69.12 37.12 78.72 52.48 46.08 77.44 119.68 55.68 149.12 42.24 4.48-33.28 17.92-55.68 32.64-68.48-113.92-12.8-232.96-56.96-232.96-252.8 0-55.68 19.84-101.76 52.48-137.6-5.12-12.8-23.04-65.28 5.12-135.68 0 0 42.88-13.44 140.8 52.48 40.96-11.52 84.48-17.28 128-17.28 43.52 0 87.04 5.76 128 17.28 97.92-66.56 140.8-52.48 140.8-52.48 28.16 70.4 10.24 122.88 5.12 135.68 32.64 35.84 52.48 81.28 52.48 137.6 0 196.48-119.68 240-233.6 252.8 18.56 16 34.56 46.72 34.56 94.72 0 68.48-.64 123.52-.64 140.8 0 13.44 9.6 29.44 35.2 24.32C877.44 929.92 1024 737.92 1024 512 1024 229.12 794.88 0 512 0z"></path>
</symbol>

<symbol id="github" viewBox="0 0 32 32">
<path d="M347.445 0H34.555C15.471 0 0 15.471 0 34.555v312.889C0 366.529 15.471 382 34.555 382h312.889C366.529 382 382 366.529 382 347.444V34.555C382 15.471 366.529 0 347.445 0zM118.207 329.844c0 5.554-4.502 10.056-10.056 10.056H65.345c-5.554 0-10.056-4.502-10.056-10.056V150.403c0-5.554 4.502-10.056 10.056-10.056h42.806c5.554 0 10.056 4.502 10.056 10.056v179.441zM86.748 123.432c-22.459 0-40.666-18.207-40.666-40.666S64.289 42.1 86.748 42.1s40.666 18.207 40.666 40.666-18.206 40.666-40.666 40.666zM341.91 330.654a9.247 9.247 0 01-9.246 9.246H286.73a9.247 9.247 0 01-9.246-9.246v-84.168c0-12.556 3.683-55.021-32.813-55.021-28.309 0-34.051 29.066-35.204 42.11v97.079a9.246 9.246 0 01-9.246 9.246h-44.426a9.247 9.247 0 01-9.246-9.246V149.593a9.247 9.247 0 019.246-9.246h44.426a9.247 9.247 0 019.246 9.246v15.655c10.497-15.753 26.097-27.912 59.312-27.912 73.552 0 73.131 68.716 73.131 106.472v86.846z"></path>
</symbol>

</defs>
</svg>
